<mxfile host="65bd71144e">
    <diagram id="UyTvM7Mge_tHcK4MmHKb" name="Page-1">
        <mxGraphModel dx="1819" dy="613" grid="1" gridSize="10" guides="1" tooltips="1" connect="1" arrows="1" fold="1" page="1" pageScale="1" pageWidth="827" pageHeight="1169" math="0" shadow="0">
            <root>
                <mxCell id="0"/>
                <mxCell id="1" parent="0"/>
                <mxCell id="8" style="edgeStyle=none;html=1;exitX=1;exitY=0.5;exitDx=0;exitDy=0;fillColor=#a20025;strokeColor=#000000;" edge="1" parent="1" source="3">
                    <mxGeometry relative="1" as="geometry">
                        <mxPoint x="470" y="630" as="targetPoint"/>
                    </mxGeometry>
                </mxCell>
                <mxCell id="3" value="diceRoller(diceId)" style="shape=process;whiteSpace=wrap;html=1;backgroundOutline=1;rounded=1;fillColor=#0050ef;strokeColor=#001DBC;fontColor=#ffffff;fontSize=14;" parent="1" vertex="1">
                    <mxGeometry x="260" y="600" width="150" height="60" as="geometry"/>
                </mxCell>
                <mxCell id="4" value="random number (1-6)" style="rounded=0;whiteSpace=wrap;html=1;fillColor=#1ba1e2;strokeColor=#006EAF;fontColor=#ffffff;" vertex="1" parent="1">
                    <mxGeometry x="480" y="600" width="120" height="60" as="geometry"/>
                </mxCell>
                <mxCell id="5" value="remove all show-[1-6] classes from the rolled diceId" style="rounded=0;whiteSpace=wrap;html=1;fillColor=#1ba1e2;strokeColor=#006EAF;fontColor=#ffffff;" vertex="1" parent="1">
                    <mxGeometry x="480" y="670" width="120" height="60" as="geometry"/>
                </mxCell>
                <mxCell id="6" value="add show-_ class to diceId, with number of random number" style="rounded=0;whiteSpace=wrap;html=1;fillColor=#1ba1e2;fontColor=#ffffff;strokeColor=#006EAF;fontSize=12;" vertex="1" parent="1">
                    <mxGeometry x="480" y="740" width="120" height="60" as="geometry"/>
                </mxCell>
                <mxCell id="17" value="" style="edgeStyle=elbowEdgeStyle;elbow=horizontal;endArrow=classic;html=1;fillColor=#a20025;strokeColor=#000000;" edge="1" parent="1">
                    <mxGeometry width="50" height="50" relative="1" as="geometry">
                        <mxPoint x="410" y="630" as="sourcePoint"/>
                        <mxPoint x="470" y="700" as="targetPoint"/>
                        <Array as="points">
                            <mxPoint x="430" y="660"/>
                        </Array>
                    </mxGeometry>
                </mxCell>
                <mxCell id="18" value="" style="edgeStyle=elbowEdgeStyle;elbow=horizontal;endArrow=classic;html=1;strokeColor=#000000;" edge="1" parent="1">
                    <mxGeometry width="50" height="50" relative="1" as="geometry">
                        <mxPoint x="410" y="630" as="sourcePoint"/>
                        <mxPoint x="470" y="770" as="targetPoint"/>
                        <Array as="points">
                            <mxPoint x="430" y="660"/>
                        </Array>
                    </mxGeometry>
                </mxCell>
                <mxCell id="19" value="&lt;i style=&quot;font-size: 11px;&quot;&gt;changing the class on the dice starts the dice animation&lt;/i&gt;" style="rounded=0;whiteSpace=wrap;html=1;dashed=1;shadow=1;fillColor=#91FF00;fontColor=#000000;strokeWidth=2;strokeColor=#000000;fontSize=11;gradientColor=#FFFFCC;" vertex="1" parent="1">
                    <mxGeometry x="600" y="740" width="120" height="60" as="geometry"/>
                </mxCell>
                <mxCell id="12" style="edgeStyle=none;html=1;endArrow=none;endFill=0;fillColor=#a20025;strokeColor=#000000;exitX=1;exitY=0.5;exitDx=0;exitDy=0;" edge="1" parent="1" source="4">
                    <mxGeometry x="710" y="630" as="geometry">
                        <mxPoint x="760" y="630" as="targetPoint"/>
                        <mxPoint x="710" y="630" as="sourcePoint"/>
                    </mxGeometry>
                </mxCell>
                <mxCell id="15" value="" style="endArrow=none;html=1;fillColor=#a20025;strokeColor=#000000;" edge="1" parent="1">
                    <mxGeometry x="710" y="630" width="50" height="50" as="geometry">
                        <mxPoint x="760" y="770" as="sourcePoint"/>
                        <mxPoint x="760" y="630" as="targetPoint"/>
                    </mxGeometry>
                </mxCell>
                <mxCell id="16" value="" style="endArrow=none;html=1;startArrow=classic;startFill=0;fillColor=#a20025;strokeColor=#000000;" edge="1" parent="1">
                    <mxGeometry x="710" y="630" width="50" height="50" as="geometry">
                        <mxPoint x="730" y="770" as="sourcePoint"/>
                        <mxPoint x="760" y="770" as="targetPoint"/>
                    </mxGeometry>
                </mxCell>
                <mxCell id="38" style="edgeStyle=none;html=1;exitX=1;exitY=0.5;exitDx=0;exitDy=0;fontSize=26;fontColor=#660000;startArrow=none;startFill=0;endArrow=block;endFill=1;strokeColor=#000000;" edge="1" parent="1" source="25">
                    <mxGeometry relative="1" as="geometry">
                        <mxPoint x="240" y="470" as="targetPoint"/>
                    </mxGeometry>
                </mxCell>
                <mxCell id="25" value="buttonDiceRoller()" style="shape=process;whiteSpace=wrap;html=1;backgroundOutline=1;rounded=1;fillColor=#0050ef;strokeColor=#001DBC;fontColor=#ffffff;fontSize=14;" vertex="1" parent="1">
                    <mxGeometry x="40" y="440" width="160" height="60" as="geometry"/>
                </mxCell>
                <mxCell id="27" value="playerTurn(playerId)" style="shape=process;whiteSpace=wrap;html=1;backgroundOutline=1;rounded=1;fillColor=#0050ef;strokeColor=#001DBC;fontColor=#ffffff;fontSize=14;" vertex="1" parent="1">
                    <mxGeometry y="240" width="170" height="60" as="geometry"/>
                </mxCell>
                <mxCell id="28" value="counts turns (max 3),&lt;br&gt;disables button after max count" style="rounded=0;whiteSpace=wrap;html=1;fillColor=#1ba1e2;strokeColor=#006EAF;fontColor=#ffffff;" vertex="1" parent="1">
                    <mxGeometry x="200" y="320" width="130" height="60" as="geometry"/>
                </mxCell>
                <mxCell id="29" value="gets the dice score from the dice id and saves it to turnScore[]" style="rounded=0;whiteSpace=wrap;html=1;fillColor=#1ba1e2;strokeColor=#006EAF;fontColor=#ffffff;" vertex="1" parent="1">
                    <mxGeometry x="200" y="240" width="130" height="60" as="geometry"/>
                </mxCell>
                <mxCell id="30" value="writeScoreTable(playerId)" style="shape=process;whiteSpace=wrap;html=1;backgroundOutline=1;rounded=1;fillColor=#0050ef;strokeColor=#001DBC;fontColor=#ffffff;fontSize=14;" vertex="1" parent="1">
                    <mxGeometry x="40" y="840" width="210" height="60" as="geometry"/>
                </mxCell>
                <mxCell id="34" style="edgeStyle=none;html=1;exitX=1;exitY=1;exitDx=0;exitDy=0;fontSize=26;fontColor=#660000;startArrow=none;startFill=0;endArrow=block;endFill=1;strokeColor=#000000;" edge="1" parent="1" source="32">
                    <mxGeometry relative="1" as="geometry">
                        <mxPoint x="360" y="590" as="targetPoint"/>
                    </mxGeometry>
                </mxCell>
                <mxCell id="32" value="checks&lt;br&gt;if the&lt;br&gt;&quot;data-lock-open&quot;&lt;br&gt;attribute is set&lt;br&gt;on the &lt;br&gt;&quot;diceId&quot;&lt;br&gt;id" style="rhombus;whiteSpace=wrap;html=1;rounded=0;fontSize=12;fontColor=#ffffff;strokeColor=#006EAF;fillColor=#1ba1e2;" vertex="1" parent="1">
                    <mxGeometry x="220" y="440" width="130" height="140" as="geometry"/>
                </mxCell>
                <mxCell id="35" value="&lt;font color=&quot;#000000&quot;&gt;TRUE&lt;/font&gt;" style="text;html=1;strokeColor=none;fillColor=none;align=center;verticalAlign=middle;whiteSpace=wrap;rounded=0;fontSize=26;fontColor=#660000;" vertex="1" parent="1">
                    <mxGeometry x="360" y="550" width="40" height="20" as="geometry"/>
                </mxCell>
                <mxCell id="40" value="" style="edgeStyle=elbowEdgeStyle;elbow=horizontal;endArrow=classic;html=1;strokeColor=#000000;exitX=0;exitY=0.5;exitDx=0;exitDy=0;" edge="1" parent="1" source="27">
                    <mxGeometry width="50" height="50" relative="1" as="geometry">
                        <mxPoint y="310" as="sourcePoint"/>
                        <mxPoint x="30" y="470" as="targetPoint"/>
                        <Array as="points">
                            <mxPoint y="390"/>
                        </Array>
                    </mxGeometry>
                </mxCell>
                <mxCell id="41" value="" style="edgeStyle=elbowEdgeStyle;elbow=horizontal;endArrow=classic;html=1;strokeColor=#000000;" edge="1" parent="1">
                    <mxGeometry width="50" height="50" relative="1" as="geometry">
                        <mxPoint y="280" as="sourcePoint"/>
                        <mxPoint x="30" y="870" as="targetPoint"/>
                        <Array as="points">
                            <mxPoint y="730"/>
                        </Array>
                    </mxGeometry>
                </mxCell>
                <mxCell id="43" value="checks&lt;br&gt;if &quot;turnScore&quot;&lt;br&gt;is enough for &quot;categories&quot; and&lt;br&gt;if they are&lt;br&gt;not&lt;br&gt;disabled&amp;nbsp;" style="rhombus;whiteSpace=wrap;html=1;rounded=0;fontSize=12;fontColor=#ffffff;strokeColor=#006EAF;fillColor=#1ba1e2;" vertex="1" parent="1">
                    <mxGeometry x="440" y="840" width="130" height="150" as="geometry"/>
                </mxCell>
                <mxCell id="59" style="edgeStyle=none;html=1;fontSize=26;fontColor=#660000;startArrow=none;startFill=0;endArrow=none;endFill=0;strokeColor=#000000;exitX=1;exitY=0.5;exitDx=0;exitDy=0;entryX=0;entryY=0.5;entryDx=0;entryDy=0;" edge="1" parent="1" source="44" target="43">
                    <mxGeometry relative="1" as="geometry">
                        <mxPoint x="530" y="970" as="targetPoint"/>
                    </mxGeometry>
                </mxCell>
                <mxCell id="44" value="yahtzee" style="rounded=0;whiteSpace=wrap;html=1;fillColor=#1ba1e2;strokeColor=#006EAF;fontColor=#ffffff;" vertex="1" parent="1">
                    <mxGeometry x="280" y="880" width="120" height="30" as="geometry"/>
                </mxCell>
                <mxCell id="58" style="edgeStyle=none;html=1;entryX=0;entryY=0.5;entryDx=0;entryDy=0;fontSize=26;fontColor=#660000;startArrow=none;startFill=0;endArrow=none;endFill=0;strokeColor=#000000;exitX=1;exitY=0.5;exitDx=0;exitDy=0;" edge="1" parent="1" source="45" target="43">
                    <mxGeometry relative="1" as="geometry"/>
                </mxCell>
                <mxCell id="45" value="chance" style="rounded=0;whiteSpace=wrap;html=1;fillColor=#1ba1e2;strokeColor=#006EAF;fontColor=#ffffff;" vertex="1" parent="1">
                    <mxGeometry x="280" y="840" width="120" height="30" as="geometry"/>
                </mxCell>
                <mxCell id="60" style="edgeStyle=none;html=1;entryX=0;entryY=0.5;entryDx=0;entryDy=0;fontSize=26;fontColor=#660000;startArrow=none;startFill=0;endArrow=none;endFill=0;strokeColor=#000000;exitX=1;exitY=0.5;exitDx=0;exitDy=0;" edge="1" parent="1" source="46" target="43">
                    <mxGeometry relative="1" as="geometry"/>
                </mxCell>
                <mxCell id="46" value="fourOfKind" style="rounded=0;whiteSpace=wrap;html=1;fillColor=#1ba1e2;strokeColor=#006EAF;fontColor=#ffffff;" vertex="1" parent="1">
                    <mxGeometry x="280" y="920" width="120" height="30" as="geometry"/>
                </mxCell>
                <mxCell id="61" style="edgeStyle=none;html=1;entryX=0;entryY=0.5;entryDx=0;entryDy=0;fontSize=26;fontColor=#660000;startArrow=none;startFill=0;endArrow=none;endFill=0;strokeColor=#000000;exitX=1;exitY=0.5;exitDx=0;exitDy=0;" edge="1" parent="1" source="47" target="43">
                    <mxGeometry relative="1" as="geometry"/>
                </mxCell>
                <mxCell id="47" value="threeOfKind" style="rounded=0;whiteSpace=wrap;html=1;fillColor=#1ba1e2;strokeColor=#006EAF;fontColor=#ffffff;" vertex="1" parent="1">
                    <mxGeometry x="280" y="960" width="120" height="30" as="geometry"/>
                </mxCell>
                <mxCell id="62" style="edgeStyle=none;html=1;entryX=0;entryY=0.5;entryDx=0;entryDy=0;fontSize=26;fontColor=#660000;startArrow=none;startFill=0;endArrow=none;endFill=0;strokeColor=#000000;exitX=1;exitY=0.5;exitDx=0;exitDy=0;" edge="1" parent="1" source="48" target="43">
                    <mxGeometry relative="1" as="geometry"/>
                </mxCell>
                <mxCell id="48" value="fullHouse" style="rounded=0;whiteSpace=wrap;html=1;fillColor=#1ba1e2;strokeColor=#006EAF;fontColor=#ffffff;" vertex="1" parent="1">
                    <mxGeometry x="280" y="1000" width="120" height="30" as="geometry"/>
                </mxCell>
                <mxCell id="63" style="edgeStyle=none;html=1;fontSize=26;fontColor=#660000;startArrow=none;startFill=0;endArrow=none;endFill=0;strokeColor=#000000;exitX=1;exitY=0.5;exitDx=0;exitDy=0;entryX=0;entryY=0.5;entryDx=0;entryDy=0;" edge="1" parent="1" source="49" target="43">
                    <mxGeometry relative="1" as="geometry">
                        <mxPoint x="530" y="980" as="targetPoint"/>
                    </mxGeometry>
                </mxCell>
                <mxCell id="49" value="smallStright" style="rounded=0;whiteSpace=wrap;html=1;fillColor=#1ba1e2;strokeColor=#006EAF;fontColor=#ffffff;" vertex="1" parent="1">
                    <mxGeometry x="280" y="1040" width="120" height="30" as="geometry"/>
                </mxCell>
                <mxCell id="64" style="edgeStyle=none;html=1;fontSize=26;fontColor=#660000;startArrow=none;startFill=0;endArrow=none;endFill=0;strokeColor=#000000;exitX=1;exitY=0.5;exitDx=0;exitDy=0;entryX=0;entryY=0.5;entryDx=0;entryDy=0;" edge="1" parent="1" source="50" target="43">
                    <mxGeometry relative="1" as="geometry">
                        <mxPoint x="530" y="980" as="targetPoint"/>
                    </mxGeometry>
                </mxCell>
                <mxCell id="50" value="largeStright" style="rounded=0;whiteSpace=wrap;html=1;fillColor=#1ba1e2;strokeColor=#006EAF;fontColor=#ffffff;" vertex="1" parent="1">
                    <mxGeometry x="280" y="1080" width="120" height="30" as="geometry"/>
                </mxCell>
                <mxCell id="65" style="edgeStyle=none;html=1;fontSize=26;fontColor=#660000;startArrow=none;startFill=0;endArrow=none;endFill=0;strokeColor=#000000;exitX=1;exitY=0.5;exitDx=0;exitDy=0;entryX=0;entryY=0.5;entryDx=0;entryDy=0;" edge="1" parent="1" source="51" target="43">
                    <mxGeometry relative="1" as="geometry">
                        <mxPoint x="530" y="950" as="targetPoint"/>
                    </mxGeometry>
                </mxCell>
                <mxCell id="51" value="upperSection" style="rounded=0;whiteSpace=wrap;html=1;fillColor=#1ba1e2;strokeColor=#006EAF;fontColor=#ffffff;" vertex="1" parent="1">
                    <mxGeometry x="280" y="1120" width="120" height="30" as="geometry"/>
                </mxCell>
                <mxCell id="66" value="" style="edgeStyle=elbowEdgeStyle;elbow=horizontal;endArrow=classic;html=1;strokeColor=#000000;entryX=0;entryY=0.5;entryDx=0;entryDy=0;" edge="1" parent="1" target="51">
                    <mxGeometry width="50" height="50" relative="1" as="geometry">
                        <mxPoint x="250" y="870" as="sourcePoint"/>
                        <mxPoint x="310" y="1010" as="targetPoint"/>
                        <Array as="points">
                            <mxPoint x="260" y="1000"/>
                            <mxPoint x="250" y="1000"/>
                        </Array>
                    </mxGeometry>
                </mxCell>
                <mxCell id="68" value="" style="edgeStyle=elbowEdgeStyle;elbow=horizontal;endArrow=classic;html=1;strokeColor=#000000;entryX=0;entryY=0.5;entryDx=0;entryDy=0;" edge="1" parent="1" target="50">
                    <mxGeometry width="50" height="50" relative="1" as="geometry">
                        <mxPoint x="260" y="880" as="sourcePoint"/>
                        <mxPoint x="290" y="1145" as="targetPoint"/>
                        <Array as="points">
                            <mxPoint x="260" y="980"/>
                            <mxPoint x="260" y="1010"/>
                        </Array>
                    </mxGeometry>
                </mxCell>
                <mxCell id="69" value="" style="edgeStyle=elbowEdgeStyle;elbow=horizontal;endArrow=classic;html=1;strokeColor=#000000;entryX=0;entryY=0.5;entryDx=0;entryDy=0;" edge="1" parent="1" source="30" target="49">
                    <mxGeometry width="50" height="50" relative="1" as="geometry">
                        <mxPoint x="270" y="890" as="sourcePoint"/>
                        <mxPoint x="300" y="1155" as="targetPoint"/>
                        <Array as="points">
                            <mxPoint x="260" y="970"/>
                            <mxPoint x="270" y="1020"/>
                        </Array>
                    </mxGeometry>
                </mxCell>
                <mxCell id="70" value="" style="edgeStyle=elbowEdgeStyle;elbow=horizontal;endArrow=classic;html=1;strokeColor=#000000;entryX=0;entryY=0.5;entryDx=0;entryDy=0;exitX=1;exitY=0.5;exitDx=0;exitDy=0;" edge="1" parent="1" source="30" target="48">
                    <mxGeometry width="50" height="50" relative="1" as="geometry">
                        <mxPoint x="280" y="900" as="sourcePoint"/>
                        <mxPoint x="310" y="1165" as="targetPoint"/>
                        <Array as="points">
                            <mxPoint x="260" y="950"/>
                            <mxPoint x="280" y="1030"/>
                        </Array>
                    </mxGeometry>
                </mxCell>
                <mxCell id="71" value="" style="edgeStyle=elbowEdgeStyle;elbow=horizontal;endArrow=classic;html=1;strokeColor=#000000;entryX=0;entryY=0.5;entryDx=0;entryDy=0;exitX=1;exitY=0.5;exitDx=0;exitDy=0;" edge="1" parent="1" source="30" target="47">
                    <mxGeometry width="50" height="50" relative="1" as="geometry">
                        <mxPoint x="290" y="910" as="sourcePoint"/>
                        <mxPoint x="320" y="1175" as="targetPoint"/>
                        <Array as="points">
                            <mxPoint x="260" y="990"/>
                            <mxPoint x="290" y="1040"/>
                        </Array>
                    </mxGeometry>
                </mxCell>
                <mxCell id="72" value="" style="edgeStyle=elbowEdgeStyle;elbow=horizontal;endArrow=classic;html=1;strokeColor=#000000;entryX=0;entryY=0.5;entryDx=0;entryDy=0;exitX=1;exitY=0.5;exitDx=0;exitDy=0;" edge="1" parent="1" source="30" target="46">
                    <mxGeometry width="50" height="50" relative="1" as="geometry">
                        <mxPoint x="300" y="920" as="sourcePoint"/>
                        <mxPoint x="330" y="1185" as="targetPoint"/>
                        <Array as="points">
                            <mxPoint x="260" y="935"/>
                        </Array>
                    </mxGeometry>
                </mxCell>
                <mxCell id="73" value="" style="edgeStyle=elbowEdgeStyle;elbow=horizontal;endArrow=classic;html=1;strokeColor=#000000;entryX=0;entryY=0.5;entryDx=0;entryDy=0;exitX=1;exitY=0.5;exitDx=0;exitDy=0;" edge="1" parent="1" source="30" target="44">
                    <mxGeometry width="50" height="50" relative="1" as="geometry">
                        <mxPoint x="310" y="930" as="sourcePoint"/>
                        <mxPoint x="340" y="1195" as="targetPoint"/>
                        <Array as="points">
                            <mxPoint x="260" y="895"/>
                        </Array>
                    </mxGeometry>
                </mxCell>
                <mxCell id="74" value="" style="edgeStyle=elbowEdgeStyle;elbow=horizontal;endArrow=classic;html=1;strokeColor=#000000;exitX=1;exitY=0.5;exitDx=0;exitDy=0;entryX=0;entryY=0.5;entryDx=0;entryDy=0;" edge="1" parent="1" source="30" target="45">
                    <mxGeometry width="50" height="50" relative="1" as="geometry">
                        <mxPoint x="320" y="940" as="sourcePoint"/>
                        <mxPoint x="270" y="860" as="targetPoint"/>
                        <Array as="points"/>
                    </mxGeometry>
                </mxCell>
                <mxCell id="75" value="&lt;font color=&quot;#000000&quot;&gt;TRUE&lt;/font&gt;" style="text;html=1;strokeColor=none;fillColor=none;align=center;verticalAlign=middle;whiteSpace=wrap;rounded=0;fontSize=26;fontColor=#660000;" vertex="1" parent="1">
                    <mxGeometry x="570" y="940" width="40" height="20" as="geometry"/>
                </mxCell>
                <mxCell id="76" value="add &quot;table-button--flash&quot; class to table-playerId" style="rounded=0;whiteSpace=wrap;html=1;fillColor=#1ba1e2;strokeColor=#006EAF;fontColor=#ffffff;" vertex="1" parent="1">
                    <mxGeometry x="580" y="985" width="120" height="60" as="geometry"/>
                </mxCell>
                <mxCell id="77" value="writes points into table-playerId" style="rounded=0;whiteSpace=wrap;html=1;fillColor=#1ba1e2;strokeColor=#006EAF;fontColor=#ffffff;" vertex="1" parent="1">
                    <mxGeometry x="580" y="1060" width="120" height="60" as="geometry"/>
                </mxCell>
                <mxCell id="78" value="&lt;i style=&quot;font-size: 11px&quot;&gt;makes button flash&lt;/i&gt;" style="rounded=0;whiteSpace=wrap;html=1;dashed=1;shadow=1;fillColor=#91FF00;fontColor=#000000;strokeWidth=2;strokeColor=#000000;fontSize=11;gradientColor=#FFFFCC;" vertex="1" parent="1">
                    <mxGeometry x="700" y="985" width="120" height="60" as="geometry"/>
                </mxCell>
                <mxCell id="79" value="" style="edgeStyle=elbowEdgeStyle;elbow=horizontal;endArrow=classic;html=1;strokeColor=#000000;exitX=1;exitY=1;exitDx=0;exitDy=0;" edge="1" parent="1" source="43">
                    <mxGeometry width="50" height="50" relative="1" as="geometry">
                        <mxPoint x="530" y="950" as="sourcePoint"/>
                        <mxPoint x="570" y="1020" as="targetPoint"/>
                        <Array as="points">
                            <mxPoint x="550" y="980"/>
                        </Array>
                    </mxGeometry>
                </mxCell>
                <mxCell id="80" value="" style="edgeStyle=elbowEdgeStyle;elbow=horizontal;endArrow=classic;html=1;strokeColor=#000000;exitX=1;exitY=1;exitDx=0;exitDy=0;" edge="1" parent="1" source="43">
                    <mxGeometry width="50" height="50" relative="1" as="geometry">
                        <mxPoint x="530" y="950" as="sourcePoint"/>
                        <mxPoint x="570" y="1090" as="targetPoint"/>
                        <Array as="points">
                            <mxPoint x="550" y="980"/>
                        </Array>
                    </mxGeometry>
                </mxCell>
                <mxCell id="81" value="" style="edgeStyle=elbowEdgeStyle;elbow=horizontal;endArrow=classic;html=1;strokeColor=#000000;exitX=1;exitY=0.5;exitDx=0;exitDy=0;entryX=0;entryY=0.5;entryDx=0;entryDy=0;" edge="1" parent="1" source="27" target="29">
                    <mxGeometry width="50" height="50" relative="1" as="geometry">
                        <mxPoint x="460" y="240" as="sourcePoint"/>
                        <mxPoint x="520" y="380" as="targetPoint"/>
                        <Array as="points"/>
                    </mxGeometry>
                </mxCell>
                <mxCell id="82" value="" style="edgeStyle=elbowEdgeStyle;elbow=horizontal;endArrow=classic;html=1;strokeColor=#000000;exitX=1;exitY=0.5;exitDx=0;exitDy=0;entryX=0;entryY=0.5;entryDx=0;entryDy=0;" edge="1" parent="1" source="27" target="28">
                    <mxGeometry width="50" height="50" relative="1" as="geometry">
                        <mxPoint x="490" y="310" as="sourcePoint"/>
                        <mxPoint x="550" y="450" as="targetPoint"/>
                        <Array as="points">
                            <mxPoint x="180" y="310"/>
                        </Array>
                    </mxGeometry>
                </mxCell>
                <mxCell id="83" value="changeLock()" style="shape=process;whiteSpace=wrap;html=1;backgroundOutline=1;rounded=1;fillColor=#0050ef;strokeColor=#001DBC;fontColor=#ffffff;fontSize=14;" vertex="1" parent="1">
                    <mxGeometry y="1180" width="120" height="60" as="geometry"/>
                </mxCell>
                <mxCell id="84" value="changes lock icon from&lt;br&gt;locked to unlocked to locked" style="rounded=0;whiteSpace=wrap;html=1;fillColor=#1ba1e2;strokeColor=#006EAF;fontColor=#ffffff;" vertex="1" parent="1">
                    <mxGeometry x="170" y="1180" width="170" height="60" as="geometry"/>
                </mxCell>
                <mxCell id="85" value="changes data-lock-open&lt;br&gt;from 'true' to 'false' to 'true'" style="rounded=0;whiteSpace=wrap;html=1;fillColor=#1ba1e2;strokeColor=#006EAF;fontColor=#ffffff;" vertex="1" parent="1">
                    <mxGeometry x="170" y="1251" width="170" height="60" as="geometry"/>
                </mxCell>
                <mxCell id="86" value="" style="edgeStyle=elbowEdgeStyle;elbow=horizontal;endArrow=classic;html=1;strokeColor=#000000;entryX=0;entryY=0.5;entryDx=0;entryDy=0;" edge="1" parent="1" target="84">
                    <mxGeometry width="50" height="50" relative="1" as="geometry">
                        <mxPoint x="120" y="1210" as="sourcePoint"/>
                        <mxPoint x="180" y="1350" as="targetPoint"/>
                        <Array as="points">
                            <mxPoint x="140" y="1240"/>
                        </Array>
                    </mxGeometry>
                </mxCell>
                <mxCell id="89" value="" style="edgeStyle=elbowEdgeStyle;elbow=horizontal;endArrow=classic;html=1;strokeColor=#000000;entryX=0;entryY=0.5;entryDx=0;entryDy=0;" edge="1" parent="1" target="85">
                    <mxGeometry width="50" height="50" relative="1" as="geometry">
                        <mxPoint x="130" y="1210" as="sourcePoint"/>
                        <mxPoint x="180" y="1220" as="targetPoint"/>
                        <Array as="points">
                            <mxPoint x="150" y="1250"/>
                        </Array>
                    </mxGeometry>
                </mxCell>
                <mxCell id="90" value="createTableRow(playerId, playerName)" style="shape=process;whiteSpace=wrap;html=1;backgroundOutline=1;rounded=1;fillColor=#0050ef;strokeColor=#001DBC;fontColor=#ffffff;fontSize=14;" vertex="1" parent="1">
                    <mxGeometry x="40" y="1550" width="330" height="60" as="geometry"/>
                </mxCell>
                <mxCell id="91" value="creates a new table row based on the 'playerId' id" style="rounded=0;whiteSpace=wrap;html=1;fillColor=#1ba1e2;strokeColor=#006EAF;fontColor=#ffffff;" vertex="1" parent="1">
                    <mxGeometry x="400" y="1550" width="290" height="60" as="geometry"/>
                </mxCell>
                <mxCell id="92" value="creates a button with the 'playerId' id,&lt;br&gt;addEventListener('click', playerTurn(playerId)" style="rounded=0;whiteSpace=wrap;html=1;fillColor=#1ba1e2;strokeColor=#006EAF;fontColor=#ffffff;" vertex="1" parent="1">
                    <mxGeometry x="400" y="1620" width="290" height="50" as="geometry"/>
                </mxCell>
                <mxCell id="93" value="" style="edgeStyle=elbowEdgeStyle;elbow=horizontal;endArrow=classic;html=1;strokeColor=#000000;exitX=1;exitY=0.5;exitDx=0;exitDy=0;entryX=0;entryY=0.5;entryDx=0;entryDy=0;" edge="1" parent="1" source="90" target="91">
                    <mxGeometry width="50" height="50" relative="1" as="geometry">
                        <mxPoint x="370" y="1710" as="sourcePoint"/>
                        <mxPoint x="430" y="1850" as="targetPoint"/>
                        <Array as="points"/>
                    </mxGeometry>
                </mxCell>
                <mxCell id="94" value="" style="edgeStyle=elbowEdgeStyle;elbow=horizontal;endArrow=classic;html=1;strokeColor=#000000;entryX=0;entryY=0.5;entryDx=0;entryDy=0;" edge="1" parent="1" target="92">
                    <mxGeometry width="50" height="50" relative="1" as="geometry">
                        <mxPoint x="370" y="1580" as="sourcePoint"/>
                        <mxPoint x="410" y="1590" as="targetPoint"/>
                        <Array as="points"/>
                    </mxGeometry>
                </mxCell>
                <mxCell id="95" value="newPlayer()" style="shape=process;whiteSpace=wrap;html=1;backgroundOutline=1;rounded=1;fillColor=#0050ef;strokeColor=#001DBC;fontColor=#ffffff;fontSize=14;" vertex="1" parent="1">
                    <mxGeometry y="1350" width="120" height="60" as="geometry"/>
                </mxCell>
                <mxCell id="96" value="converts 'playerName'&amp;nbsp; to 'playerId' (remove empty space)&lt;br&gt;(checks for double names) and adds it to 'playerArray'" style="rounded=0;whiteSpace=wrap;html=1;fillColor=#1ba1e2;strokeColor=#006EAF;fontColor=#ffffff;" vertex="1" parent="1">
                    <mxGeometry x="160" y="1450" width="330" height="60" as="geometry"/>
                </mxCell>
                <mxCell id="101" style="edgeStyle=none;html=1;fontSize=26;fontColor=#660000;startArrow=none;startFill=0;endArrow=classic;endFill=1;strokeColor=#000000;" edge="1" parent="1" source="97">
                    <mxGeometry relative="1" as="geometry">
                        <mxPoint x="325" y="1440" as="targetPoint"/>
                    </mxGeometry>
                </mxCell>
                <mxCell id="97" value="prompt user to enter player Name ('playerName')" style="rounded=0;whiteSpace=wrap;html=1;fillColor=#1ba1e2;strokeColor=#006EAF;fontColor=#ffffff;" vertex="1" parent="1">
                    <mxGeometry x="160" y="1355" width="330" height="50" as="geometry"/>
                </mxCell>
                <mxCell id="99" value="" style="edgeStyle=elbowEdgeStyle;elbow=horizontal;endArrow=classic;html=1;strokeColor=#000000;exitX=1;exitY=0.5;exitDx=0;exitDy=0;entryX=0;entryY=0.5;entryDx=0;entryDy=0;" edge="1" parent="1" source="95" target="97">
                    <mxGeometry width="50" height="50" relative="1" as="geometry">
                        <mxPoint x="-60" y="1510" as="sourcePoint"/>
                        <mxPoint x="160" y="1730" as="targetPoint"/>
                        <Array as="points"/>
                    </mxGeometry>
                </mxCell>
                <mxCell id="102" value="" style="edgeStyle=elbowEdgeStyle;elbow=horizontal;endArrow=classic;html=1;strokeColor=#000000;exitX=0;exitY=0.5;exitDx=0;exitDy=0;entryX=0;entryY=0.5;entryDx=0;entryDy=0;" edge="1" parent="1" source="95" target="90">
                    <mxGeometry width="50" height="50" relative="1" as="geometry">
                        <mxPoint x="290" y="1650" as="sourcePoint"/>
                        <mxPoint x="350" y="1790" as="targetPoint"/>
                        <Array as="points">
                            <mxPoint y="1590"/>
                        </Array>
                    </mxGeometry>
                </mxCell>
                <mxCell id="103" value="disables all other player buttons exept the first button from the 'playerArray'" style="rounded=0;whiteSpace=wrap;html=1;fillColor=#1ba1e2;strokeColor=#006EAF;fontColor=#ffffff;" vertex="1" parent="1">
                    <mxGeometry x="160" y="1700" width="420" height="60" as="geometry"/>
                </mxCell>
                <mxCell id="104" value="" style="edgeStyle=elbowEdgeStyle;elbow=horizontal;endArrow=classic;html=1;strokeColor=#000000;entryX=0;entryY=0.5;entryDx=0;entryDy=0;" edge="1" parent="1" target="103">
                    <mxGeometry width="50" height="50" relative="1" as="geometry">
                        <mxPoint y="1380" as="sourcePoint"/>
                        <mxPoint x="50" y="1590" as="targetPoint"/>
                        <Array as="points">
                            <mxPoint y="1560"/>
                        </Array>
                    </mxGeometry>
                </mxCell>
                <mxCell id="108" style="edgeStyle=none;html=1;entryX=0;entryY=0.5;entryDx=0;entryDy=0;fontSize=26;fontColor=#660000;startArrow=none;startFill=0;endArrow=classic;endFill=1;strokeColor=#000000;" edge="1" parent="1" source="105" target="106">
                    <mxGeometry relative="1" as="geometry"/>
                </mxCell>
                <mxCell id="105" value="nextPlayer(playerId)" style="shape=process;whiteSpace=wrap;html=1;backgroundOutline=1;rounded=1;fillColor=#0050ef;strokeColor=#001DBC;fontColor=#ffffff;fontSize=14;" vertex="1" parent="1">
                    <mxGeometry x="30" y="2075" width="180" height="60" as="geometry"/>
                </mxCell>
                <mxCell id="109" style="edgeStyle=none;html=1;entryX=0.5;entryY=0;entryDx=0;entryDy=0;fontSize=26;fontColor=#660000;startArrow=none;startFill=0;endArrow=classic;endFill=1;strokeColor=#000000;" edge="1" parent="1" source="106" target="107">
                    <mxGeometry relative="1" as="geometry"/>
                </mxCell>
                <mxCell id="106" value="checks 'playerArray' for who is next player" style="rounded=0;whiteSpace=wrap;html=1;fillColor=#1ba1e2;strokeColor=#006EAF;fontColor=#ffffff;" vertex="1" parent="1">
                    <mxGeometry x="260" y="2080" width="250" height="50" as="geometry"/>
                </mxCell>
                <mxCell id="107" value="returns 'playerId' of next player" style="rounded=0;whiteSpace=wrap;html=1;fillColor=#1ba1e2;strokeColor=#006EAF;fontColor=#ffffff;" vertex="1" parent="1">
                    <mxGeometry x="260" y="2165" width="250" height="50" as="geometry"/>
                </mxCell>
                <mxCell id="110" value="savePointsTable(thisButton, playerId)" style="shape=process;whiteSpace=wrap;html=1;backgroundOutline=1;rounded=1;fillColor=#0050ef;strokeColor=#001DBC;fontColor=#ffffff;fontSize=14;" vertex="1" parent="1">
                    <mxGeometry y="1825" width="310" height="60" as="geometry"/>
                </mxCell>
                <mxCell id="111" value="disables button on which function was called&lt;br&gt;(points are written into table)&lt;br&gt;remove 'table-button--flash' class" style="rounded=0;whiteSpace=wrap;html=1;fillColor=#1ba1e2;strokeColor=#006EAF;fontColor=#ffffff;" vertex="1" parent="1">
                    <mxGeometry x="350" y="1820" width="270" height="70" as="geometry"/>
                </mxCell>
                <mxCell id="112" value="removes all 'table-button--flash' classes,&lt;br&gt;sets textContent to '---'" style="rounded=0;whiteSpace=wrap;html=1;fillColor=#1ba1e2;strokeColor=#006EAF;fontColor=#ffffff;" vertex="1" parent="1">
                    <mxGeometry x="350" y="1905" width="270" height="50" as="geometry"/>
                </mxCell>
                <mxCell id="113" value="disables current player button" style="rounded=0;whiteSpace=wrap;html=1;fillColor=#1ba1e2;strokeColor=#006EAF;fontColor=#ffffff;" vertex="1" parent="1">
                    <mxGeometry x="350" y="1975" width="270" height="50" as="geometry"/>
                </mxCell>
                <mxCell id="114" value="enables the nextPlayer button" style="rounded=0;whiteSpace=wrap;html=1;fillColor=#1ba1e2;strokeColor=#006EAF;fontColor=#ffffff;" vertex="1" parent="1">
                    <mxGeometry x="420" y="2285" width="270" height="50" as="geometry"/>
                </mxCell>
                <mxCell id="115" value="" style="edgeStyle=elbowEdgeStyle;elbow=horizontal;endArrow=classic;html=1;strokeColor=#000000;exitX=0;exitY=0.5;exitDx=0;exitDy=0;entryX=0;entryY=0.5;entryDx=0;entryDy=0;" edge="1" parent="1" source="110" target="105">
                    <mxGeometry width="50" height="50" relative="1" as="geometry">
                        <mxPoint x="100" y="1925" as="sourcePoint"/>
                        <mxPoint x="160" y="2065" as="targetPoint"/>
                        <Array as="points">
                            <mxPoint y="2005"/>
                        </Array>
                    </mxGeometry>
                </mxCell>
                <mxCell id="116" value="" style="edgeStyle=elbowEdgeStyle;elbow=horizontal;endArrow=classic;html=1;strokeColor=#000000;exitX=1;exitY=0.5;exitDx=0;exitDy=0;entryX=0;entryY=0.5;entryDx=0;entryDy=0;" edge="1" parent="1" source="110" target="111">
                    <mxGeometry width="50" height="50" relative="1" as="geometry">
                        <mxPoint x="230" y="1925" as="sourcePoint"/>
                        <mxPoint x="290" y="2065" as="targetPoint"/>
                        <Array as="points">
                            <mxPoint x="330" y="1855"/>
                        </Array>
                    </mxGeometry>
                </mxCell>
                <mxCell id="117" value="" style="edgeStyle=elbowEdgeStyle;elbow=horizontal;endArrow=classic;html=1;strokeColor=#000000;entryX=0;entryY=0.5;entryDx=0;entryDy=0;" edge="1" parent="1" target="112">
                    <mxGeometry width="50" height="50" relative="1" as="geometry">
                        <mxPoint x="310" y="1855" as="sourcePoint"/>
                        <mxPoint x="340" y="2045" as="targetPoint"/>
                        <Array as="points">
                            <mxPoint x="330" y="1895"/>
                        </Array>
                    </mxGeometry>
                </mxCell>
                <mxCell id="118" value="" style="edgeStyle=elbowEdgeStyle;elbow=horizontal;endArrow=classic;html=1;strokeColor=#000000;entryX=0;entryY=0.5;entryDx=0;entryDy=0;exitX=1;exitY=0.5;exitDx=0;exitDy=0;" edge="1" parent="1" source="110" target="113">
                    <mxGeometry width="50" height="50" relative="1" as="geometry">
                        <mxPoint x="320" y="1865" as="sourcePoint"/>
                        <mxPoint x="360" y="1940" as="targetPoint"/>
                        <Array as="points"/>
                    </mxGeometry>
                </mxCell>
                <mxCell id="119" value="" style="edgeStyle=elbowEdgeStyle;elbow=horizontal;endArrow=none;html=1;strokeColor=#000000;exitX=1;exitY=0.5;exitDx=0;exitDy=0;endFill=0;" edge="1" parent="1" source="110">
                    <mxGeometry width="50" height="50" relative="1" as="geometry">
                        <mxPoint x="430" y="2145" as="sourcePoint"/>
                        <mxPoint x="560" y="2055" as="targetPoint"/>
                        <Array as="points">
                            <mxPoint x="330" y="2055"/>
                        </Array>
                    </mxGeometry>
                </mxCell>
                <mxCell id="120" value="" style="edgeStyle=elbowEdgeStyle;elbow=horizontal;endArrow=none;html=1;strokeColor=#000000;exitX=0.5;exitY=1;exitDx=0;exitDy=0;endFill=0;" edge="1" parent="1" source="107">
                    <mxGeometry width="50" height="50" relative="1" as="geometry">
                        <mxPoint x="560" y="2055" as="sourcePoint"/>
                        <mxPoint x="560" y="2245" as="targetPoint"/>
                        <Array as="points">
                            <mxPoint x="385" y="2245"/>
                        </Array>
                    </mxGeometry>
                </mxCell>
                <mxCell id="121" value="" style="endArrow=classic;html=1;fontSize=26;fontColor=#660000;strokeColor=#000000;" edge="1" parent="1">
                    <mxGeometry width="50" height="50" relative="1" as="geometry">
                        <mxPoint x="560" y="2055" as="sourcePoint"/>
                        <mxPoint x="560" y="2285" as="targetPoint"/>
                    </mxGeometry>
                </mxCell>
                <mxCell id="123" value="addEventListener('click', changeLock) to 'lock-container' classes&lt;br&gt;(changes the lock icons and the attribute value)" style="rounded=0;whiteSpace=wrap;html=1;fillColor=#1ba1e2;strokeColor=#006EAF;fontColor=#ffffff;" vertex="1" parent="1">
                    <mxGeometry y="2390" width="370" height="60" as="geometry"/>
                </mxCell>
                <mxCell id="124" value="addEventListener('click', newPlayer) to 'create-player' id" style="rounded=0;whiteSpace=wrap;html=1;fillColor=#1ba1e2;strokeColor=#006EAF;fontColor=#ffffff;" vertex="1" parent="1">
                    <mxGeometry y="2480" width="370" height="60" as="geometry"/>
                </mxCell>
            </root>
        </mxGraphModel>
    </diagram>
</mxfile>